<?xml version="1.0" standalone="no"?><!DOCTYPE svg PUBLIC "-//W3C//DTD SVG 1.1//EN" "http://www.w3.org/Graphics/SVG/1.1/DTD/svg11.dtd"><svg t="1644292381376" class="icon" viewBox="0 0 1024 1024" version="1.1" xmlns="http://www.w3.org/2000/svg" p-id="9148" xmlns:xlink="http://www.w3.org/1999/xlink" width="64" height="64"><defs><style type="text/css"></style></defs><path d="M365.714286 146.285714h292.571428V73.142857H365.714286v73.142857z m658.285714 365.714286v274.285714q0 37.714286-26.857143 64.571429t-64.571428 26.857143H91.428571q-37.714286 0-64.571428-26.857143T0 786.285714V512h384v91.428571q0 14.857143 10.857143 25.714286t25.714286 10.857143h182.857142q14.857143 0 25.714286-10.857143t10.857143-25.714286V512h384z m-438.857143 0v73.142857H438.857143V512h146.285714z m438.857143-274.285714v219.428571H0V237.714286q0-37.714286 26.857143-64.571429t64.571428-26.857143h201.142858V54.857143q0-22.857143 16-38.857143t38.857142-16h329.142858q22.857143 0 38.857142 16t16 38.857143v91.428571h201.142858q37.714286 0 64.571428 26.857143t26.857143 64.571429z" p-id="9149"></path></svg>