<?xml version="1.0" standalone="no"?><!DOCTYPE svg PUBLIC "-//W3C//DTD SVG 1.1//EN" "http://www.w3.org/Graphics/SVG/1.1/DTD/svg11.dtd"><svg t="1654236919019" class="icon" viewBox="0 0 1024 1024" version="1.1" xmlns="http://www.w3.org/2000/svg" p-id="6804" xmlns:xlink="http://www.w3.org/1999/xlink" width="200" height="200"><defs><style type="text/css">@font-face { font-family: feedback-iconfont; src: url("//at.alicdn.com/t/font_1031158_u69w8yhxdu.woff2?t=1630033759944") format("woff2"), url("//at.alicdn.com/t/font_1031158_u69w8yhxdu.woff?t=1630033759944") format("woff"), url("//at.alicdn.com/t/font_1031158_u69w8yhxdu.ttf?t=1630033759944") format("truetype"); }
</style></defs><path d="M959.876096 270.336h-307.2V131.072c0-65.536-51.2-119.808-116.736-121.856h-47.104c-64.512 4.096-114.688 58.368-113.664 121.856v139.264H63.876096c-18.432 1.024-34.816 8.192-47.104 21.504-12.288 13.312-18.432 30.72-16.384 49.152v74.752c0 34.816 28.672 63.488 63.488 63.488h884.736c33.792-3.072 63.488-24.576 75.776-57.344v-80.896c1.024-36.864-27.648-67.584-64.512-70.656z m-454.656-56.32c-35.84 0-63.488-28.672-63.488-64.512s28.672-64.512 64.512-64.512 64.512 28.672 64.512 63.488c0 34.816-28.672 63.488-63.488 63.488l-2.048 2.048zM63.876096 788.48V526.336h889.856V788.48c0 58.368 6.144 116.736 17.408 175.104 4.096 11.264 2.048 24.576-6.144 34.816-8.192 11.264-21.504 18.432-34.816 17.408H785.796096V695.296c0-9.216-8.192-17.408-17.408-17.408h-17.408c-9.216 1.024-16.384 8.192-17.408 17.408v319.488H611.716096V695.296c-1.024-9.216-8.192-16.384-17.408-17.408h-17.408c-9.216 1.024-16.384 8.192-17.408 17.408v320.512h-122.88V695.296c-1.024-9.216-8.192-16.384-17.408-17.408h-17.408c-9.216 1.024-16.384 8.192-17.408 17.408v320.512H279.940096V695.296c-1.024-9.216-8.192-16.384-17.408-17.408h-17.408c-9.216 1.024-16.384 8.192-17.408 17.408v320.512H87.428096c-13.312-2.048-25.6-8.192-34.816-18.432-5.12-11.264-11.264-22.528-5.12-34.816 10.24-57.344 16.384-115.712 16.384-174.08z m0 0" p-id="6805"></path></svg>