<?xml version="1.0" standalone="no"?><!DOCTYPE svg PUBLIC "-//W3C//DTD SVG 1.1//EN" "http://www.w3.org/Graphics/SVG/1.1/DTD/svg11.dtd"><svg t="1644338125757" class="icon" viewBox="0 0 1098 1024" version="1.1" xmlns="http://www.w3.org/2000/svg" p-id="11811" xmlns:xlink="http://www.w3.org/1999/xlink" width="214.453125" height="200"><defs><style type="text/css"></style></defs><path d="M512 512q0-60.562286-42.861714-103.424t-103.424-42.861714-103.424 42.861714-42.861714 103.424 42.861714 103.424 103.424 42.861714 103.424-42.861714 42.861714-103.424zM950.857143 804.571429q0-29.696-21.723429-51.419429t-51.419429-21.723429-51.419429 21.723429-21.723429 51.419429q0 30.281143 21.430857 51.712t51.712 21.430857 51.712-21.430857 21.430857-51.712zM950.857143 219.428571q0-29.696-21.723429-51.419429t-51.419429-21.723429-51.419429 21.723429-21.723429 51.419429q0 30.281143 21.430857 51.712t51.712 21.430857 51.712-21.430857 21.430857-51.712zM731.428571 459.995429l0 105.691429q0 5.705143-4.022857 11.117714t-9.142857 5.997714l-88.576 13.677714q-6.290286 19.968-18.285714 43.446857 19.456 27.428571 51.419429 65.682286 4.022857 5.705143 4.022857 11.410286 0 6.875429-4.022857 10.825143-13.165714 17.115429-47.177143 51.126857t-44.836571 34.011429q-6.290286 0-11.995429-4.022857l-65.682286-51.419429q-21.138286 10.825143-44.032 17.700571-6.290286 61.732571-13.165714 88.576-4.022857 13.677714-17.115429 13.677714l-106.276571 0q-6.290286 0-11.410286-4.315429t-5.705143-10.020571l-13.165714-87.405714q-19.456-5.705143-42.861714-17.700571l-67.437714 50.834286q-4.022857 4.022857-11.410286 4.022857-6.290286 0-11.995429-4.534857-82.285714-75.995429-82.285714-91.428571 0-5.12 4.022857-10.825143 5.705143-7.972571 23.405714-30.281143t26.843429-34.889143q-13.165714-25.161143-19.968-46.884571l-86.820571-13.677714q-5.705143-0.585143-9.728-5.412571t-4.022857-11.117714l0-105.691429q0-5.705143 4.022857-11.117714t9.142857-5.997714l88.576-13.677714q6.290286-19.968 18.285714-43.446857-19.456-27.428571-51.419429-65.682286-4.022857-6.290286-4.022857-11.410286 0-6.875429 4.022857-11.410286 12.580571-17.115429 46.884571-50.834286t45.129143-33.718857q6.290286 0 11.995429 4.022857l65.682286 51.419429q19.456-10.313143 44.032-18.285714 6.290286-61.732571 13.165714-87.990857 4.022857-13.677714 17.115429-13.677714l106.276571 0q6.290286 0 11.410286 4.315429t5.705143 10.020571l13.165714 87.405714q19.456 5.705143 42.861714 17.700571l67.437714-50.834286q4.534857-4.022857 11.410286-4.022857 6.290286 0 11.995429 4.534857 82.285714 75.995429 82.285714 91.428571 0 5.12-4.022857 10.825143-6.875429 9.142857-23.990857 30.866286t-25.746286 34.304q13.165714 27.428571 19.456 46.884571l86.820571 13.165714q5.705143 1.170286 9.728 5.997714t4.022857 11.117714zM1097.142857 764.562286l0 80.018286q0 9.142857-85.138286 17.700571-6.875429 15.433143-17.115429 29.696 29.110857 64.585143 29.110857 78.848 0 2.267429-2.267429 4.022857-69.705143 40.594286-70.875429 40.594286-4.534857 0-26.258286-26.843429t-29.696-38.838857q-11.410286 1.170286-17.115429 1.170286t-17.115429-1.170286q-7.972571 11.995429-29.696 38.838857t-26.258286 26.843429q-1.170286 0-70.875429-40.594286-2.267429-1.682286-2.267429-4.022857 0-14.262857 29.110857-78.848-10.313143-14.262857-17.115429-29.696-85.138286-8.557714-85.138286-17.700571l0-80.018286q0-9.142857 85.138286-17.700571 7.460571-16.603429 17.115429-29.696-29.110857-64.585143-29.110857-78.848 0-2.267429 2.267429-4.022857 2.267429-1.170286 19.968-11.410286t33.718857-19.456 17.115429-9.142857q4.534857 0 26.258286 26.550857t29.696 38.546286q11.410286-1.170286 17.115429-1.170286t17.115429 1.170286q29.110857-40.594286 52.589714-64l3.437714-1.170286q2.267429 0 70.875429 40.009143 2.267429 1.682286 2.267429 4.022857 0 14.262857-29.110857 78.848 9.728 13.165714 17.115429 29.696 85.138286 8.557714 85.138286 17.700571zM1097.142857 179.419429l0 80.018286q0 9.142857-85.138286 17.700571-6.875429 15.433143-17.115429 29.696 29.110857 64.585143 29.110857 78.848 0 2.267429-2.267429 4.022857-69.705143 40.594286-70.875429 40.594286-4.534857 0-26.258286-26.843429t-29.696-38.838857q-11.410286 1.170286-17.115429 1.170286t-17.115429-1.170286q-7.972571 11.995429-29.696 38.838857t-26.258286 26.843429q-1.170286 0-70.875429-40.594286-2.267429-1.682286-2.267429-4.022857 0-14.262857 29.110857-78.848-10.313143-14.262857-17.115429-29.696-85.138286-8.557714-85.138286-17.700571l0-80.018286q0-9.142857 85.138286-17.700571 7.460571-16.603429 17.115429-29.696-29.110857-64.585143-29.110857-78.848 0-2.267429 2.267429-4.022857 2.267429-1.170286 19.968-11.410286t33.718857-19.456 17.115429-9.142857q4.534857 0 26.258286 26.550857t29.696 38.546286q11.410286-1.170286 17.115429-1.170286t17.115429 1.170286q29.110857-40.594286 52.589714-64l3.437714-1.170286q2.267429 0 70.875429 40.009143 2.267429 1.682286 2.267429 4.022857 0 14.262857-29.110857 78.848 9.728 13.165714 17.115429 29.696 85.138286 8.557714 85.138286 17.700571z" p-id="11812"></path></svg>