<?xml version="1.0" standalone="no"?><!DOCTYPE svg PUBLIC "-//W3C//DTD SVG 1.1//EN" "http://www.w3.org/Graphics/SVG/1.1/DTD/svg11.dtd"><svg t="1644292506058" class="icon" viewBox="0 0 1024 1024" version="1.1" xmlns="http://www.w3.org/2000/svg" p-id="9298" xmlns:xlink="http://www.w3.org/1999/xlink" width="64" height="64"><defs><style type="text/css"></style></defs><path d="M730.285714 613.714286v62.285714q0 28.571429-20.857143 50.857143t-53.714285 34.571428-67.428572 18.571429-67.142857 6.285714q-117.142857 0-195.714286-79.428571T246.857143 509.142857q0-116 77.714286-193.714286t193.714285-77.714285q19.428571 0 43.142857 2.571428t53.142858 10.285715 52.857142 19.428571 39.428572 32.285714 16 46.285715v62.285714q0 9.142857-9.142857 9.142857h-67.428572q-9.142857 0-9.142857-9.142857v-40q0-24.571429-37.428571-38.571429T521.142857 318.285714q-80 0-130.571428 52.285715T340 506.285714q0 86.285714 52.285714 142.571429T525.714286 705.142857q38.857143 0 78.857143-13.714286t40-37.714285v-40q0-4 2.571428-6.571429t6-2.571428h68q3.428571 0 6.285714 2.571428t2.857143 6.571429zM512 146.285714q-74.285714 0-142 29.142857t-116.571429 78-78 116.571429T146.285714 512t29.142857 142 78 116.571429 116.571429 78 142 29.142857 142-29.142857 116.571429-78 78-116.571429 29.142857-142-29.142857-142-78-116.571429-116.571429-78T512 146.285714z m438.857143 365.714286q0 119.428571-58.857143 220.285714T732.285714 892 512 950.857143t-220.285714-58.857143T132 732.285714 73.142857 512t58.857143-220.285714T291.714286 132 512 73.142857t220.285714 58.857143T892 291.714286 950.857143 512z" p-id="9299"></path></svg>