<?xml version="1.0" standalone="no"?><!DOCTYPE svg PUBLIC "-//W3C//DTD SVG 1.1//EN" "http://www.w3.org/Graphics/SVG/1.1/DTD/svg11.dtd"><svg t="1649225742085" class="icon" viewBox="0 0 1024 1024" version="1.1" xmlns="http://www.w3.org/2000/svg" p-id="10272" xmlns:xlink="http://www.w3.org/1999/xlink" width="64" height="64"><defs><style type="text/css">@font-face { font-family: feedback-iconfont; src: url("//at.alicdn.com/t/font_1031158_u69w8yhxdu.woff2?t=1630033759944") format("woff2"), url("//at.alicdn.com/t/font_1031158_u69w8yhxdu.woff?t=1630033759944") format("woff"), url("//at.alicdn.com/t/font_1031158_u69w8yhxdu.ttf?t=1630033759944") format("truetype"); }
</style></defs><path d="M733.024 649.44a367.68 367.68 0 0 1-183.68 297.088c-175.36 101.12-399.04 41.856-499.68-132.032C-35.968 666.56-4.64 483.2 114.464 369.12c0 14.464 2.464 48.864 12.448 85.696-67.264 91.68-78.24 217.696-17.92 321.824 81.184 140.96 263.008 188.8 405.472 106.592a298.784 298.784 0 0 0 149.344-238.848 84.352 84.352 0 0 1-33.248-32.16 84.864 84.864 0 0 1 31.36-116.064c40.384-23.392 92.16-9.44 116.096 30.912a84.864 84.864 0 0 1-44.992 122.368z m-428.8 27.744a367.36 367.36 0 0 1-170.336-310.528C133.888 164.416 296.288 0 497.536 0c170.88 0 314.336 118.56 353.184 278.464-12.416-6.464-43.328-21.888-79.68-31.36-46.336-104.128-149.952-176.864-270.016-176.864-163.392 0-295.424 133.504-295.424 297.92a298.624 298.624 0 0 0 133.12 248.96 85.12 85.12 0 0 1 135.392 68.864 84.864 84.864 0 0 1-85.184 85.184 85.12 85.12 0 0 1-84.736-94.016z m184.928-393.728a366.56 366.56 0 0 1 350.624 9.472c175.36 101.6 236.16 324.8 135.488 498.656-86.176 148.96-262.016 213.696-420.928 165.888a381.952 381.952 0 0 0 67.744-53.312c114.08 13.472 230.176-39.84 290.88-144.96 81.248-140.992 31.936-322.336-110.56-404.48a297.6 297.6 0 0 0-275.52-12.512 84.032 84.032 0 0 1-10.432 54.848 84.384 84.384 0 0 1-116.064 30.88 84.992 84.992 0 0 1 22.528-156.416 84.384 84.384 0 0 1 66.24 11.936z" p-id="10273"></path></svg>