<?xml version="1.0" standalone="no"?><!DOCTYPE svg PUBLIC "-//W3C//DTD SVG 1.1//EN" "http://www.w3.org/Graphics/SVG/1.1/DTD/svg11.dtd"><svg t="1644294744200" class="icon" viewBox="0 0 1025 1024" version="1.1" xmlns="http://www.w3.org/2000/svg" p-id="19556" xmlns:xlink="http://www.w3.org/1999/xlink" width="64.0625" height="64"><defs><style type="text/css"></style></defs><path d="M438.914236 512.549517c-19.682701 0-38.266367 7.693238-52.254074 21.680945s-21.680944 32.471461-21.680945 52.254073c0 19.682701 7.693238 38.266367 21.680945 52.254074s32.471461 21.680944 52.254074 21.680944c19.682701 0 38.266367-7.693238 52.254073-21.680944s21.680944-32.471461 21.680945-52.254074c0-19.682701-7.693238-38.266367-21.680945-52.254073S458.696848 512.549517 438.914236 512.549517z" p-id="19557"></path><path d="M512.849254 0.89921c-282.551664 0-511.550395 228.998732-511.550396 511.550395s228.998732 511.550395 511.550396 511.550395 511.550395-228.998732 511.550395-511.550395S795.301005 0.89921 512.849254 0.89921z m223.403649 520.742316c-8.69236 8.592448-19.982437 12.988584-31.372427 12.988584s-22.680066-4.296224-31.372426-12.988584l-53.552932-53.552932-39.065665 39.065665c13.088496 23.379452 20.58191 50.455654 20.58191 79.230364 0 89.721144-72.736072 162.457215-162.457215 162.457215s-162.457215-72.736072-162.457216-162.457215 72.736072-162.457215 162.457216-162.457215c28.77471 0 55.850912 7.493414 79.230364 20.58191l155.36345-155.36345c17.284808-17.284808 45.360133-17.284808 62.744853 0 17.284808 17.284808 17.284808 45.360133 0 62.644941l-53.652844 53.552932 53.652844 53.652844c17.184896 17.284808 17.184896 45.360133-0.099912 62.644941z" p-id="19558"></path></svg>