<?xml version="1.0" standalone="no"?><!DOCTYPE svg PUBLIC "-//W3C//DTD SVG 1.1//EN" "http://www.w3.org/Graphics/SVG/1.1/DTD/svg11.dtd"><svg t="1648537598556" class="icon" viewBox="0 0 1024 1024" version="1.1" xmlns="http://www.w3.org/2000/svg" p-id="1205" xmlns:xlink="http://www.w3.org/1999/xlink" width="64" height="64"><defs><style type="text/css">@font-face { font-family: feedback-iconfont; src: url("//at.alicdn.com/t/font_1031158_u69w8yhxdu.woff2?t=1630033759944") format("woff2"), url("//at.alicdn.com/t/font_1031158_u69w8yhxdu.woff?t=1630033759944") format("woff"), url("//at.alicdn.com/t/font_1031158_u69w8yhxdu.ttf?t=1630033759944") format("truetype"); }
</style></defs><path d="M512 0l8.466 0.068C796.542 4.544 1019.502 227.53 1023.932 503.62L1024 512l-0.016 4.072a512 512 0 0 1-507.912 507.912L512 1024l-8.466-0.068C227.458 1019.456 4.498 796.47 0.068 520.38L0 512l0.068-8.466C4.544 227.458 227.53 4.498 503.62 0.068L512 0z m-0.118 90l-6.782 0.056C280.078 93.666 97.436 273.56 90.22 498.172l-0.16 6.686-0.06 7.258 0.056 6.784c3.61 225 183.466 407.628 408.048 414.876l6.754 0.162 7.458 0.06 3.04-0.012a422 422 0 0 0 292.66-121.224l2.384-2.362a422 422 0 0 0 123.548-291.722l0.04-3.32 0.012-3.474-0.056-6.784c-3.61-225-183.466-407.628-408.048-414.876l-6.756-0.164-7.258-0.06z" p-id="1206"></path><path d="M507.12 714v-56h-232.4v-120.96h209.44v-56H274.72v-110.88H497.6v-56H209.2V714h297.92z m119.84 0v-174.16c2.24-22.96 10.08-40.88 23.52-53.2 11.76-11.2 25.76-16.8 41.44-16.8 43.68 0 65.52 23.52 65.52 71.12V714h63.84v-178.64c0-79.52-36.4-118.72-108.64-118.72-17.36 0-33.04 3.36-47.6 10.64-14 6.72-26.88 17.36-38.08 30.8v-33.6h-63.84V714h63.84z" p-id="1207"></path></svg>