<?xml version="1.0" standalone="no"?><!DOCTYPE svg PUBLIC "-//W3C//DTD SVG 1.1//EN" "http://www.w3.org/Graphics/SVG/1.1/DTD/svg11.dtd"><svg t="1644338642093" class="icon" viewBox="0 0 1024 1024" version="1.1" xmlns="http://www.w3.org/2000/svg" p-id="11049" xmlns:xlink="http://www.w3.org/1999/xlink" width="200" height="200"><defs><style type="text/css"></style></defs><path d="M512 73.142857q119.442286 0 220.306286 58.88t159.744 159.744 58.88 220.306286-58.88 220.306286-159.744 159.744-220.306286 58.88-220.306286-58.88-159.744-159.744-58.88-220.306286 58.88-220.306286 159.744-159.744 220.306286-58.88zM585.142857 785.700571l0-108.544q0-7.972571-5.12-13.458286t-12.580571-5.412571l-109.714286 0q-7.460571 0-13.165714 5.705143t-5.705143 13.165714l0 108.544q0 7.460571 5.705143 13.165714t13.165714 5.705143l109.714286 0q7.460571 0 12.580571-5.412571t5.12-13.458286zM583.972571 589.165714l10.313143-354.889143q0-6.875429-5.705143-10.313143-5.705143-4.534857-13.677714-4.534857l-125.732571 0q-7.972571 0-13.677714 4.534857-5.705143 3.437714-5.705143 10.313143l9.728 354.889143q0 5.705143 5.705143 10.020571t13.677714 4.315429l105.691429 0q7.972571 0 13.458286-4.315429t5.997714-10.020571z" p-id="11050"></path></svg>