<?xml version="1.0" standalone="no"?><!DOCTYPE svg PUBLIC "-//W3C//DTD SVG 1.1//EN" "http://www.w3.org/Graphics/SVG/1.1/DTD/svg11.dtd"><svg t="1644316358685" class="icon" viewBox="0 0 1024 1024" version="1.1" xmlns="http://www.w3.org/2000/svg" p-id="1987" xmlns:xlink="http://www.w3.org/1999/xlink" width="64" height="64"><defs><style type="text/css"></style></defs><path d="M512.021525 1024a511.992525 511.992525 0 1 1 511.992525-511.845525A512.504525 512.504525 0 0 1 512.021525 1024z m2.354998-940.164128a425.904605 425.904605 0 1 0 425.875605 425.977605A426.372604 426.372604 0 0 0 514.376523 83.835872z m53.50995 677.585372h-126.109883v-123.609886h126.109883v123.609886z m77.252928-326.358698a89.554917 89.554917 0 0 1-21.01998 32.76797 307.195715 307.195715 0 0 1-33.059969 26.915975 107.8109 107.8109 0 0 0-27.794975 26.623975 44.909958 44.909958 0 0 0-7.123993 26.769975v21.063981H454.166579A880.846183 880.846183 0 0 1 453.859579 530.000458a155.542856 155.542856 0 0 1 3.085997-27.500974 75.67193 75.67193 0 0 1 11.453989-26.623975 111.467897 111.467897 0 0 1 20.362982-20.479981 261.554757 261.554757 0 0 1 28.261973-20.185982 108.454899 108.454899 0 0 0 19.777982-18.285983 27.354975 27.354975 0 0 0 6.801994-17.553984 54.679949 54.679949 0 0 0-10.94199-27.500974 34.888968 34.888968 0 0 0-27.793974-9.069992 45.917957 45.917957 0 0 0-31.830971 11.849989 48.682955 48.682955 0 0 0-14.628986 29.547973l-1.228999 22.819979h-98.769909c0-14.773986 0.599999-29.255973 1.842999-43.15296a139.071871 139.071871 0 0 1 12.682988-44.908958 117.552891 117.552891 0 0 1 31.201971-41.105962 129.07988 129.07988 0 0 1 47.599956-25.013977 228.962788 228.962788 0 0 1 57.474947-8.337992 183.68783 183.68783 0 0 1 70.464934 12.725988 115.563893 115.563893 0 0 1 48.522955 35.254967 105.031903 105.031903 0 0 1 21.64998 41.982961 174.618838 174.618838 0 0 1 4.007996 34.961968 133.000877 133.000877 0 0 1-8.718992 45.639957z" p-id="1988"></path></svg>