<?xml version="1.0" standalone="no"?><!DOCTYPE svg PUBLIC "-//W3C//DTD SVG 1.1//EN" "http://www.w3.org/Graphics/SVG/1.1/DTD/svg11.dtd"><svg t="1648537027679" class="icon" viewBox="0 0 1024 1024" version="1.1" xmlns="http://www.w3.org/2000/svg" p-id="3308" xmlns:xlink="http://www.w3.org/1999/xlink" width="64" height="64"><defs><style type="text/css">@font-face { font-family: feedback-iconfont; src: url("//at.alicdn.com/t/font_1031158_u69w8yhxdu.woff2?t=1630033759944") format("woff2"), url("//at.alicdn.com/t/font_1031158_u69w8yhxdu.woff?t=1630033759944") format("woff"), url("//at.alicdn.com/t/font_1031158_u69w8yhxdu.ttf?t=1630033759944") format("truetype"); }
</style></defs><path d="M512.298667 0C229.546667 0 0.298667 229.248 0.298667 512s229.248 512 512 512 512-229.248 512-512S795.050667 0 512.298667 0z m0 76.8c240.341333 0 435.2 194.858667 435.2 435.2 0 240.341333-194.858667 435.2-435.2 435.2-240.341333 0-435.2-194.858667-435.2-435.2C77.098667 271.658667 271.957333 76.8 512.298667 76.8z" p-id="3309"></path><path d="M584.917333 818.944c3.968-20.224 6.101333-47.445333 7.125334-69.504 24.32 7.125333 191.530667-134.229333 53.589333-191.146667l-1.237333-0.512a436.736 436.736 0 0 1-122.666667 133.12c6.784 13.226667 14.762667 25.856 23.893333 37.674667-29.994667 23.125333-57.002667 38.826667-60.714666 41.728-0.725333 0-12.501333-14.805333-26.112-42.794667-18.133333 8.533333-36.864 15.872-56.064 21.930667-106.24 33.621333-143.104-134.4-128.597334-170.24 11.221333-27.733333 51.754667-76.629333 144.64-97.664 1.493333-15.914667 3.712-32.426667 6.869334-49.493333-55.04 2.133333-113.493333-4.394667-169.344-26.624 11.52-20.437333 22.229333-41.301333 32.128-62.549334 0 0 50.986667 23.466667 155.946666 14.421334 11.008-34.688 24.576-68.522667 40.533334-101.290667l64.298666 27.776s-11.178667 23.722667-23.850666 61.44c37.12-7.808 73.728-17.877333 109.568-30.122667 20.010667 32.853333 46.421333 52.096 46.421333 52.096s-75.861333 38.656-177.749333 56.448c-3.541333 16-6.4 32.128-8.704 48.298667 33.578667-1.365333 71.722667 0.426667 115.029333 6.442667 16-15.274667 14.293333-41.685333 14.293333-41.685334l67.84 10.410667s-4.224 18.773333-15.786666 47.146667c20.437333 7.594667 78.165333 34.730667 90.794666 109.226666 14.165333 83.456-97.152 222.549333-182.186666 215.466667h0.042666z m-253.44-204.629333c-2.218667 17.664 12.074667 76.458667 35.669334 76.458666 23.594667 0 53.589333-17.365333 53.589333-17.365333S407.765333 608.341333 406.485333 562.176c-39.253333 9.002667-72.789333 34.474667-75.008 52.138667z m233.386667-64.554667c-10.112-4.821333-82.133333 0-82.133333 0-6.997333 15.36 10.666667 79.914667 10.666666 79.914667s81.578667-75.093333 71.466667-79.914667z" p-id="3310"></path></svg>