<?xml version="1.0" standalone="no"?><!DOCTYPE svg PUBLIC "-//W3C//DTD SVG 1.1//EN" "http://www.w3.org/Graphics/SVG/1.1/DTD/svg11.dtd"><svg t="1644339004379" class="icon" viewBox="0 0 1396 1024" version="1.1" xmlns="http://www.w3.org/2000/svg" p-id="12919" xmlns:xlink="http://www.w3.org/1999/xlink" width="272.65625" height="200"><defs><style type="text/css"></style></defs><path d="M1396.363636 1024H0V0h1396.363636zM186.181818 837.818182h1024V186.181818H186.181818z" p-id="12920"></path><path d="M279.272727 279.272727h186.181818v93.090909H279.272727zM930.909091 279.272727h186.181818v93.090909h-186.181818zM930.909091 465.454545h186.181818v93.09091h-186.181818zM558.545455 279.272727h186.181818v93.090909H558.545455zM465.454545 651.636364h279.272728v93.090909H465.454545zM279.272727 651.636364h93.090909v93.090909H279.272727zM744.727273 279.272727h93.090909v93.090909H744.727273zM837.818182 465.454545h93.090909v93.09091H837.818182zM1024 372.363636h93.090909v93.090909h-93.090909zM1024 651.636364h93.090909v93.090909h-93.090909zM837.818182 651.636364h93.090909v93.090909H837.818182zM651.636364 465.454545h93.090909v93.09091H651.636364zM279.272727 465.454545h93.090909v93.09091H279.272727zM465.454545 465.454545h93.09091v93.09091H465.454545z" p-id="12921"></path></svg>