<?xml version="1.0" standalone="no"?><!DOCTYPE svg PUBLIC "-//W3C//DTD SVG 1.1//EN" "http://www.w3.org/Graphics/SVG/1.1/DTD/svg11.dtd"><svg t="1644819173133" class="icon" viewBox="0 0 1097 1024" version="1.1" xmlns="http://www.w3.org/2000/svg" p-id="9002" xmlns:xlink="http://www.w3.org/1999/xlink" width="68.5625" height="64"><defs><style type="text/css"></style></defs><path d="M219.428571 667.428571v54.857143q0 9.142857-9.142857 9.142857h-54.857143q-9.142857 0-9.142857-9.142857v-54.857143q0-9.142857 9.142857-9.142857h54.857143q9.142857 0 9.142857 9.142857z m73.142858-146.285714v54.857143q0 9.142857-9.142858 9.142857H155.428571q-9.142857 0-9.142857-9.142857v-54.857143q0-9.142857 9.142857-9.142857h128q9.142857 0 9.142858 9.142857zM219.428571 374.857143v54.857143q0 9.142857-9.142857 9.142857h-54.857143q-9.142857 0-9.142857-9.142857v-54.857143q0-9.142857 9.142857-9.142857h54.857143q9.142857 0 9.142857 9.142857z m585.142858 292.571428v54.857143q0 9.142857-9.142858 9.142857H301.714286q-9.142857 0-9.142857-9.142857v-54.857143q0-9.142857 9.142857-9.142857h493.714285q9.142857 0 9.142858 9.142857zM438.857143 521.142857v54.857143q0 9.142857-9.142857 9.142857h-54.857143q-9.142857 0-9.142857-9.142857v-54.857143q0-9.142857 9.142857-9.142857h54.857143q9.142857 0 9.142857 9.142857zM365.714286 374.857143v54.857143q0 9.142857-9.142857 9.142857h-54.857143q-9.142857 0-9.142857-9.142857v-54.857143q0-9.142857 9.142857-9.142857h54.857143q9.142857 0 9.142857 9.142857z m219.428571 146.285714v54.857143q0 9.142857-9.142857 9.142857h-54.857143q-9.142857 0-9.142857-9.142857v-54.857143q0-9.142857 9.142857-9.142857h54.857143q9.142857 0 9.142857 9.142857zM512 374.857143v54.857143q0 9.142857-9.142857 9.142857h-54.857143q-9.142857 0-9.142857-9.142857v-54.857143q0-9.142857 9.142857-9.142857h54.857143q9.142857 0 9.142857 9.142857z m219.428571 146.285714v54.857143q0 9.142857-9.142857 9.142857h-54.857143q-9.142857 0-9.142857-9.142857v-54.857143q0-9.142857 9.142857-9.142857h54.857143q9.142857 0 9.142857 9.142857z m219.428572 146.285714v54.857143q0 9.142857-9.142857 9.142857h-54.857143q-9.142857 0-9.142857-9.142857v-54.857143q0-9.142857 9.142857-9.142857h54.857143q9.142857 0 9.142857 9.142857z m-292.571429-292.571428v54.857143q0 9.142857-9.142857 9.142857h-54.857143q-9.142857 0-9.142857-9.142857v-54.857143q0-9.142857 9.142857-9.142857h54.857143q9.142857 0 9.142857 9.142857z m146.285715 0v54.857143q0 9.142857-9.142858 9.142857h-54.857142q-9.142857 0-9.142858-9.142857v-54.857143q0-9.142857 9.142858-9.142857h54.857142q9.142857 0 9.142858 9.142857z m146.285714 0v201.142857q0 9.142857-9.142857 9.142857h-128q-9.142857 0-9.142857-9.142857v-54.857143q0-9.142857 9.142857-9.142857h64V374.857143q0-9.142857 9.142857-9.142857h54.857143q9.142857 0 9.142857 9.142857z m73.142857 429.714286V292.571429H73.142857v512h950.857143z m73.142857-512v512q0 30.285714-21.428571 51.714285T1024 877.714286H73.142857q-30.285714 0-51.714286-21.428572T0 804.571429V292.571429q0-30.285714 21.428571-51.714286T73.142857 219.428571h950.857143q30.285714 0 51.714286 21.428572T1097.142857 292.571429z" p-id="9003"></path></svg>