<?xml version="1.0" standalone="no"?><!DOCTYPE svg PUBLIC "-//W3C//DTD SVG 1.1//EN" "http://www.w3.org/Graphics/SVG/1.1/DTD/svg11.dtd"><svg t="1649225892234" class="icon" viewBox="0 0 1024 1024" version="1.1" xmlns="http://www.w3.org/2000/svg" p-id="10713" xmlns:xlink="http://www.w3.org/1999/xlink" width="64" height="64"><defs><style type="text/css">@font-face { font-family: feedback-iconfont; src: url("//at.alicdn.com/t/font_1031158_u69w8yhxdu.woff2?t=1630033759944") format("woff2"), url("//at.alicdn.com/t/font_1031158_u69w8yhxdu.woff?t=1630033759944") format("woff"), url("//at.alicdn.com/t/font_1031158_u69w8yhxdu.ttf?t=1630033759944") format("truetype"); }
</style></defs><path d="M792 960.064h-112v-112h112a56.064 56.064 0 0 0 56-56V287.872H176v504.192c0 30.784 25.088 56 56 56h112v112h-112A168 168 0 0 1 64 792.064V231.936A168 168 0 0 1 232 63.936h560A168 168 0 0 1 960 231.936v560.128a168 168 0 0 1-168 168zM232 119.936a56 56 0 1 0 0 112 56 56 0 0 0 0-112z m240.384 408.448a55.808 55.808 0 0 1 79.168 0l112 111.936a56.192 56.192 0 0 1-39.744 95.744h-55.808v168c0 30.784-25.088 56-56 56s-56-25.216-56-56v-168H400a56.192 56.192 0 0 1-39.68-95.744l112.064-111.936z" p-id="10714"></path></svg>