<?xml version="1.0" standalone="no"?><!DOCTYPE svg PUBLIC "-//W3C//DTD SVG 1.1//EN" "http://www.w3.org/Graphics/SVG/1.1/DTD/svg11.dtd"><svg t="1654231808160" class="icon" viewBox="0 0 1024 1024" version="1.1" xmlns="http://www.w3.org/2000/svg" p-id="4099" xmlns:xlink="http://www.w3.org/1999/xlink" width="200" height="200"><defs><style type="text/css">@font-face { font-family: feedback-iconfont; src: url("//at.alicdn.com/t/font_1031158_u69w8yhxdu.woff2?t=1630033759944") format("woff2"), url("//at.alicdn.com/t/font_1031158_u69w8yhxdu.woff?t=1630033759944") format("woff"), url("//at.alicdn.com/t/font_1031158_u69w8yhxdu.ttf?t=1630033759944") format("truetype"); }
</style></defs><path d="M851.199056 0.00064H172.799904A76.479904 76.479904 0 0 0 96 76.800544v870.398912A77.119904 77.119904 0 0 0 172.799904 1023.99936h678.399152a76.479904 76.479904 0 0 0 76.799904-76.799904V76.800544A77.119904 77.119904 0 0 0 851.199056 0.00064zM511.99948 959.99944a63.99992 63.99992 0 1 1 63.99992-63.99992 63.99992 63.99992 0 0 1-63.99992 63.99992z m291.839635-240.3197a25.919968 25.919968 0 0 1-26.239967 25.599968H247.67981a25.919968 25.919968 0 0 1-26.239967-25.599968V150.720452a25.919968 25.919968 0 0 1 26.239967-25.599968h528.959339a25.599968 25.599968 0 0 1 25.919968 25.599968z" p-id="4100"></path></svg>