<?xml version="1.0" standalone="no"?><!DOCTYPE svg PUBLIC "-//W3C//DTD SVG 1.1//EN" "http://www.w3.org/Graphics/SVG/1.1/DTD/svg11.dtd"><svg t="1644292609330" class="icon" viewBox="0 0 1024 1024" version="1.1" xmlns="http://www.w3.org/2000/svg" p-id="13490" xmlns:xlink="http://www.w3.org/1999/xlink" width="64" height="64"><defs><style type="text/css"></style></defs><path d="M1024 768L904.533 887.467 785.067 768h68.266c-11.377-51.2-56.889-85.333-108.089-85.333-62.577 0-113.777 51.2-113.777 113.777s51.2 113.778 113.777 113.778h11.378V1024h-11.378C620.09 1024 517.69 921.6 517.69 796.444s102.4-227.555 227.555-227.555c113.778 0 210.49 85.333 221.867 199.111H1024z m-455.111 256h-512C22.756 1024 0 1001.244 0 967.111v-512c0-34.133 22.756-56.889 56.889-56.889h56.889V284.444C113.778 125.156 238.933 0 398.222 0h56.89C614.4 0 739.555 125.156 739.555 284.444v113.778h56.888c34.134 0 56.89 22.756 56.89 56.89v79.644C819.2 523.378 779.377 512 739.555 512c-159.29 0-284.445 125.156-284.445 284.444 0 91.023 45.511 176.356 113.778 227.556zM227.556 398.222h398.222V312.89c0-108.089-91.022-199.111-199.111-199.111S227.556 204.8 227.556 312.888v85.334z" p-id="13491"></path></svg>