<?xml version="1.0" standalone="no"?><!DOCTYPE svg PUBLIC "-//W3C//DTD SVG 1.1//EN" "http://www.w3.org/Graphics/SVG/1.1/DTD/svg11.dtd"><svg t="1644294980272" class="icon" viewBox="0 0 1024 1024" version="1.1" xmlns="http://www.w3.org/2000/svg" p-id="21905" xmlns:xlink="http://www.w3.org/1999/xlink" width="64" height="64"><defs><style type="text/css"></style></defs><path d="M901.2 139.9v456.2c0 27.4-6.5 54.6-19.5 81.6-13 27.1-30 53.3-51 78.8-21 25.4-45 49.5-72 72.2-27 22.7-54.4 43-82.1 60.7-27.8 17.8-54.8 32.6-80.9 44.3-26.2 11.8-49.2 19.8-68.9 24.2l-9.3 1.6-8.6-1.6c-20.2-4.4-43.7-12.5-70.4-24.2-26.7-11.8-54.5-26.5-83.3-44.3-28.8-17.7-57.1-38-84.8-60.7-27.7-22.7-52.5-46.8-74.3-72.2-21.8-25.5-39.4-51.6-52.9-78.8-13.5-27-20.3-54.3-20.3-81.6V139.9l31.9-4.9 358-70.6 365 70.6 23.4 4.9z m-388.3-9.4l-4.3-0.9-307.3 55.1v287.8h311.6v-342z m309.8 342H512.9v409.7c19.9-4.8 41.6-12.2 65-22.1 23.4-9.9 46.5-21.6 69.3-35.2 22.8-13.5 44.8-28.6 65.9-45.1s39.8-34.3 56.1-53.3c16.3-18.9 29.2-38.6 38.9-59.1 9.7-20.4 14.6-41.2 14.6-62.3V472.5z" p-id="21906"></path></svg>