<?xml version="1.0" standalone="no"?><!DOCTYPE svg PUBLIC "-//W3C//DTD SVG 1.1//EN" "http://www.w3.org/Graphics/SVG/1.1/DTD/svg11.dtd"><svg t="1644288851792" class="icon" viewBox="0 0 1024 1024" version="1.1" xmlns="http://www.w3.org/2000/svg" p-id="9448" xmlns:xlink="http://www.w3.org/1999/xlink" width="64" height="64"><defs><style type="text/css"></style></defs><path d="M841.142857 565.142857v148q0 68-48.285714 116.285714T676.571429 877.714286H201.142857q-68 0-116.285714-48.285715T36.571429 713.142857V237.714286q0-68 48.285714-116.285715T201.142857 73.142857h145.714286q7.428571 0 12.857143 5.428572T365.142857 91.428571q0 15.428571-14.857143 18.285715-44 14.857143-76 34.285714-5.714286 2.285714-9.142857 2.285714H201.142857q-37.714286 0-64.571428 26.857143t-26.857143 64.571429v475.428571q0 37.714286 26.857143 64.571429t64.571428 26.857143h475.428572q37.714286 0 64.571428-26.857143t26.857143-64.571429v-122.285714q0-10.857143 10.285714-16.571429 16-7.428571 30.857143-21.142857 9.142857-9.142857 20-4.571428 12 5.142857 12 16.571428z m135.428572-283.428571l-219.428572 219.428571q-10.285714 10.857143-25.714286 10.857143-6.857143 0-14.285714-2.857143-22.285714-9.714286-22.285714-33.714286V365.714286h-91.428572q-184.571429 0-250.285714 74.857143-68 78.285714-42.285714 270.285714 1.714286 13.142857-11.428572 19.428571-4.571429 1.142857-6.857142 1.142857-9.142857 0-14.857143-7.428571-5.714286-8-12-17.714286t-22.571429-39.142857T214.857143 610.285714t-22-65.142857T182.857143 475.428571q0-28 2-52t8-51.428571 16-50.285714 26.857143-46.571429 39.142857-42.285714 54-35.142857T400 170 491.142857 152.571429t112.285714-6.285715h91.428572V36.571429q0-24 22.285714-33.714286 7.428571-2.857143 14.285714-2.857143 14.857143 0 25.714286 10.857143l219.428572 219.428571q10.857143 10.857143 10.857142 25.714286t-10.857142 25.714286z" p-id="9449"></path></svg>