<?xml version="1.0" standalone="no"?><!DOCTYPE svg PUBLIC "-//W3C//DTD SVG 1.1//EN" "http://www.w3.org/Graphics/SVG/1.1/DTD/svg11.dtd"><svg t="1648708660712" class="icon" viewBox="0 0 1024 1024" version="1.1" xmlns="http://www.w3.org/2000/svg" p-id="5252" xmlns:xlink="http://www.w3.org/1999/xlink" width="64" height="64"><defs><style type="text/css">@font-face { font-family: feedback-iconfont; src: url("//at.alicdn.com/t/font_1031158_u69w8yhxdu.woff2?t=1630033759944") format("woff2"), url("//at.alicdn.com/t/font_1031158_u69w8yhxdu.woff?t=1630033759944") format("woff"), url("//at.alicdn.com/t/font_1031158_u69w8yhxdu.ttf?t=1630033759944") format("truetype"); }
</style></defs><path d="M840.145455 272.290909c48.872727 0 90.763636 39.563636 90.763636 90.763636v479.418182c0 48.872727-39.563636 88.436364-90.763636 90.763637H572.509091V691.2h121.018182L512 451.490909l-179.2 239.709091h118.690909V930.909091H183.854545C132.654545 930.909091 93.090909 889.018182 93.090909 840.145455V363.054545c0-48.872727 39.563636-90.763636 90.763636-90.763636h656.29091zM870.4 93.090909c37.236364 0 58.181818 18.618182 60.509091 55.854546v4.654545c0 39.563636-20.945455 60.509091-60.509091 60.509091H153.6C116.363636 211.781818 95.418182 193.163636 93.090909 158.254545v-4.654545C93.090909 114.036364 114.036364 93.090909 153.6 93.090909h716.8z" p-id="5253"></path></svg>