<?xml version="1.0" standalone="no"?><!DOCTYPE svg PUBLIC "-//W3C//DTD SVG 1.1//EN" "http://www.w3.org/Graphics/SVG/1.1/DTD/svg11.dtd"><svg t="1644288878011" class="icon" viewBox="0 0 1024 1024" version="1.1" xmlns="http://www.w3.org/2000/svg" p-id="9598" xmlns:xlink="http://www.w3.org/1999/xlink" width="64" height="64"><defs><style type="text/css"></style></defs><path d="M219.428571 256q0-14.857143-10.857142-25.714286t-25.714286-10.857143-25.714286 10.857143-10.857143 25.714286 10.857143 25.714286 25.714286 10.857143 25.714286-10.857143 10.857142-25.714286z m658.285715 329.142857q0-20-12.285715-46.285714t-30.571428-26.857143q8.571429-9.714286 14.285714-27.142857t5.714286-31.714286q0-39.428571-30.285714-68 10.285714-18.285714 10.285714-39.428571t-10-42T797.714286 273.714286q2.857143-17.142857 2.857143-32 0-48.571429-28-72t-77.714286-23.428572h-73.142857q-74.857143 0-195.428572 41.714286-2.857143 1.142857-16.571428 6T389.428571 201.142857t-20 6.571429-21.714285 6.285714-18.857143 3.714286-18 1.714285h-18.285714v365.714286h18.285714q9.142857 0 20.285714 5.142857t22.857143 15.428572 22 20.285714 22.857143 25.142857 19.714286 24.285714 18 23.428572 13.142857 17.142857q31.428571 38.857143 44 52 23.428571 24.571429 34 62.571429T545.142857 902.285714t21.714286 48.571429q54.857143 0 73.142857-26.857143t18.285714-82.857143q0-33.714286-27.428571-91.714286t-27.428572-91.142857h201.142858q28.571429 0 50.857142-22t22.285715-51.142857z m73.142857 0.571429q0 58.857143-43.428572 102.285714t-102.857142 43.428571h-100.571429q27.428571 56.571429 27.428571 109.714286 0 67.428571-20 106.285714-20 39.428571-58.285714 58T566.857143 1024q-29.142857 0-51.428572-21.142857-19.428571-18.857143-30.857142-46.857143t-14.571429-51.714286T460 856t-17.714286-36.571429q-27.428571-28.571429-61.142857-72.571428-57.714286-74.857143-78.285714-88.571429H146.285714q-30.285714 0-51.714285-21.428571T73.142857 585.142857V219.428571q0-30.285714 21.428572-51.714285T146.285714 146.285714h164.571429q12.571429 0 78.857143-22.857143 73.142857-25.142857 127.428571-37.714285t114.285714-12.571429h64q80 0 129.428572 45.142857t48.857143 123.428572v2.857143q34.285714 44 34.285714 101.714285 0 12.571429-1.714286 24.571429 21.714286 38.285714 21.714286 82.285714 0 20.571429-5.142857 39.428572 28 42.285714 28 93.142857z" p-id="9599"></path></svg>