<?xml version="1.0" standalone="no"?><!DOCTYPE svg PUBLIC "-//W3C//DTD SVG 1.1//EN" "http://www.w3.org/Graphics/SVG/1.1/DTD/svg11.dtd"><svg t="1644288897431" class="icon" viewBox="0 0 1024 1024" version="1.1" xmlns="http://www.w3.org/2000/svg" p-id="10048" xmlns:xlink="http://www.w3.org/1999/xlink" width="64" height="64"><defs><style type="text/css"></style></defs><path d="M700 616.571429l-83.428571 83.428571q-5.714286 5.714286-13.142858 5.714286t-13.142857-5.714286l-78.285714-78.285714-78.285714 78.285714q-5.714286 5.714286-13.142857 5.714286t-13.142858-5.714286l-83.428571-83.428571q-5.714286-5.714286-5.714286-13.142858t5.714286-13.142857l78.285714-78.285714-78.285714-78.285714q-5.714286-5.714286-5.714286-13.142857t5.714286-13.142858l83.428571-83.428571q5.714286-5.714286 13.142858-5.714286t13.142857 5.714286l78.285714 78.285714 78.285714-78.285714q5.714286-5.714286 13.142857-5.714286t13.142858 5.714286l83.428571 83.428571q5.714286 5.714286 5.714286 13.142858t-5.714286 13.142857l-78.285714 78.285714 78.285714 78.285714q5.714286 5.714286 5.714286 13.142857t-5.714286 13.142858z m122.857143-104.571429q0-84.571429-41.714286-156t-113.142857-113.142857-156-41.714286-156 41.714286-113.142857 113.142857-41.714286 156 41.714286 156 113.142857 113.142857 156 41.714286 156-41.714286 113.142857-113.142857 41.714286-156z m128 0q0 119.428571-58.857143 220.285714T732.285714 892 512 950.857143t-220.285714-58.857143T132 732.285714 73.142857 512t58.857143-220.285714T291.714286 132 512 73.142857t220.285714 58.857143T892 291.714286 950.857143 512z" p-id="10049"></path></svg>