<?xml version="1.0" standalone="no"?><!DOCTYPE svg PUBLIC "-//W3C//DTD SVG 1.1//EN" "http://www.w3.org/Graphics/SVG/1.1/DTD/svg11.dtd"><svg t="1644338508738" class="icon" viewBox="0 0 1025 1024" version="1.1" xmlns="http://www.w3.org/2000/svg" p-id="10239" xmlns:xlink="http://www.w3.org/1999/xlink" width="200.1953125" height="200"><defs><style type="text/css"></style></defs><path d="M365.714286 804.571429q0-29.696-21.723429-51.419429t-51.419429-21.723429-51.419429 21.723429-21.723429 51.419429 21.723429 51.419429 51.419429 21.723429 51.419429-21.723429 21.723429-51.419429zM146.285714 512l219.428571 0 0-146.285714-90.258286 0q-7.460571 0-12.580571 5.12l-111.396571 111.396571q-5.12 5.12-5.12 12.580571l0 17.115429zM877.714286 804.571429q0-29.696-21.723429-51.419429t-51.419429-21.723429-51.419429 21.723429-21.723429 51.419429 21.723429 51.419429 51.419429 21.723429 51.419429-21.723429 21.723429-51.419429zM1024 182.857143l0 585.142857q0 8.557714-2.267429 15.140571t-7.68 10.605714-9.435429 6.582857-13.458286 3.437714-12.873143 1.170286-14.555429 0-12.873143-0.292571q0 60.562286-42.861714 103.424t-103.424 42.861714-103.424-42.861714-42.861714-103.424l-219.428571 0q0 60.562286-42.861714 103.424t-103.424 42.861714-103.424-42.861714-42.861714-103.424l-36.571429 0q-1.682286 0-12.873143 0.292571t-14.555429 0-12.873143-1.170286-13.458286-3.437714-9.435429-6.582857-7.68-10.605714-2.267429-15.140571q0-14.848 10.825143-25.746286t25.746286-10.825143l0-182.857143q0-4.534857-0.292571-19.968t0-21.723429 1.462857-19.748571 3.730286-21.138286 7.972571-17.408 12.873143-17.115429l113.152-113.152q10.825143-10.825143 28.891429-18.285714t33.426286-7.460571l91.428571 0 0-109.714286q0-14.848 10.825143-25.746286t25.746286-10.825143l585.142857 0q14.848 0 25.746286 10.825143t10.825143 25.746286z" p-id="10240"></path></svg>