<?xml version="1.0" standalone="no"?><!DOCTYPE svg PUBLIC "-//W3C//DTD SVG 1.1//EN" "http://www.w3.org/Graphics/SVG/1.1/DTD/svg11.dtd"><svg t="1644295000701" class="icon" viewBox="0 0 1175 1024" version="1.1" xmlns="http://www.w3.org/2000/svg" p-id="22732" xmlns:xlink="http://www.w3.org/1999/xlink" width="73.4375" height="64"><defs><style type="text/css"></style></defs><path d="M1116.672 128H58.368c-32.256 0-58.368 26.112-58.368 58.368v651.264c0 32.256 26.112 58.368 58.368 58.368H1116.672c32.256 0 58.368-26.112 58.368-58.368V186.368c0-32.256-26.112-58.368-58.368-58.368zM578.56 765.44H163.328c-8.704 0-15.36-6.656-15.872-15.36v-1.536c4.096-54.272 26.624-104.96 65.024-143.872 25.6-25.6 55.808-44.544 89.088-55.296-26.112-13.824-47.616-34.816-61.952-60.416-12.8-22.528-20.48-48.64-20.48-76.288 0-84.992 68.096-153.6 151.552-153.6S522.752 327.68 522.752 412.16c0 27.648-7.68 53.76-20.48 76.288-14.336 25.6-35.84 46.592-61.952 60.416 33.28 10.752 63.488 29.696 89.088 55.296 38.4 38.912 60.928 89.6 65.024 145.408-0.512 9.216-7.168 15.872-15.872 15.872z m449.536-96.256c0 16.384-13.312 29.696-29.696 29.696h-298.496c-16.384 0-29.696-13.312-29.696-29.696v-1.536c0-16.384 13.312-29.696 29.696-29.696h298.496c16.384 0 29.696 13.312 29.696 29.696v1.536z m0-143.872c0 15.872-13.312 29.184-29.184 29.184h-300.032c-15.872 0-29.184-13.312-29.184-29.184v-3.072c0-15.872 13.312-29.184 29.184-29.184H998.912c15.872 0 29.184 13.312 29.184 29.184v3.072z m0-145.408c0 16.384-13.312 29.696-29.696 29.696h-298.496c-16.384 0-29.696-13.312-29.696-29.696v-1.536c0-16.384 13.312-29.696 29.696-29.696h298.496c16.384 0 29.696 13.312 29.696 29.696v1.536z" p-id="22733"></path></svg>