<?xml version="1.0" standalone="no"?><!DOCTYPE svg PUBLIC "-//W3C//DTD SVG 1.1//EN" "http://www.w3.org/Graphics/SVG/1.1/DTD/svg11.dtd"><svg t="1648537424702" class="icon" viewBox="0 0 1024 1024" version="1.1" xmlns="http://www.w3.org/2000/svg" p-id="5083" xmlns:xlink="http://www.w3.org/1999/xlink" width="64" height="64"><defs><style type="text/css">@font-face { font-family: feedback-iconfont; src: url("//at.alicdn.com/t/font_1031158_u69w8yhxdu.woff2?t=1630033759944") format("woff2"), url("//at.alicdn.com/t/font_1031158_u69w8yhxdu.woff?t=1630033759944") format("woff"), url("//at.alicdn.com/t/font_1031158_u69w8yhxdu.ttf?t=1630033759944") format("truetype"); }
</style></defs><path d="M450.56 550.882319a23.052367 23.052367 0 0 0-19.78744 8.013913 69.256039 69.256039 0 0 0-9.893719 20.677874 84.195556 84.195556 0 0 1-29.186474 40.762126 79.149758 79.149758 0 0 1-47.390918 13.851208 82.414686 82.414686 0 0 1-45.016425-12.169276 79.149758 79.149758 0 0 1-29.681159-37.101449 161.762319 161.762319 0 0 1-10.487343-62.231498q0-55.899517 23.744927-86.372174A76.676329 76.676329 0 0 1 346.280193 405.642512a73.312464 73.312464 0 0 1 42.345121 11.773527 98.937198 98.937198 0 0 1 29.681159 35.617391 79.743382 79.743382 0 0 0 13.851208 20.381063 26.218357 26.218357 0 0 0 18.699131 5.936232 24.833237 24.833237 0 0 0 18.995942-8.607537 27.603478 27.603478 0 0 0 7.914975-19.787439 75.588019 75.588019 0 0 0-16.126763-43.136619A126.540676 126.540676 0 0 0 415.536232 369.827246a150.087729 150.087729 0 0 0-69.256039-15.53314A158.299517 158.299517 0 0 0 285.631691 366.067633a140.292947 140.292947 0 0 0-49.468599 33.143961 147.713237 147.713237 0 0 0-32.253527 52.337778 199.952077 199.952077 0 0 0-11.27884 69.256039 218.453333 218.453333 0 0 0 5.243671 44.719613 178.086957 178.086957 0 0 0 13.455459 39.574879 161.267633 161.267633 0 0 0 21.667246 33.737585 123.176812 123.176812 0 0 0 69.256039 41.751498 201.930821 201.930821 0 0 0 46.203672 4.847922 148.405797 148.405797 0 0 0 58.570821-10.685217 121.593816 121.593816 0 0 0 65.100676-62.924058 86.965797 86.965797 0 0 0 7.519227-33.143962 26.910918 26.910918 0 0 0-8.310724-19.787439 27.306667 27.306667 0 0 0-20.776812-8.013913zM776.162319 354.294106a27.009855 27.009855 0 0 0-21.568309 9.300097 41.949372 41.949372 0 0 0-7.914976 27.90029v190.65198L621.721353 393.275362l-9.89372-16.027826a81.722126 81.722126 0 0 0-9.89372-12.466087 35.419517 35.419517 0 0 0-10.883092-7.618164 36.211014 36.211014 0 0 0-14.939517-2.869179 37.101449 37.101449 0 0 0-20.776811 6.233044 35.122705 35.122705 0 0 0-13.851208 16.126763 70.839034 70.839034 0 0 0-3.462802 24.635362v247.342996a40.861063 40.861063 0 0 0 8.310725 27.702415 27.801353 27.801353 0 0 0 22.062995 9.89372 28.197101 28.197101 0 0 0 21.865121-9.399034 39.574879 39.574879 0 0 0 8.508599-27.801353v-187.980676l121.890628 186.496618c3.462802 5.144734 6.925604 9.89372 10.487343 15.038454a74.796522 74.796522 0 0 0 11.377777 12.762899 39.574879 39.574879 0 0 0 13.059711 8.013913 48.578164 48.578164 0 0 0 15.731014 2.47343q35.023768 0 35.023768-42.246184V391.494493a41.355749 41.355749 0 0 0-8.11285-27.90029 27.603478 27.603478 0 0 0-22.062995-9.300097z" p-id="5084"></path><path d="M512 0a512 512 0 1 0 512 512A512.494686 512.494686 0 0 0 512 0z m0 944.850242A432.850242 432.850242 0 1 1 944.850242 512 433.344928 433.344928 0 0 1 512 944.850242z" p-id="5085"></path></svg>