<?xml version="1.0" standalone="no"?><!DOCTYPE svg PUBLIC "-//W3C//DTD SVG 1.1//EN" "http://www.w3.org/Graphics/SVG/1.1/DTD/svg11.dtd"><svg t="1648537762022" class="icon" viewBox="0 0 1024 1024" version="1.1" xmlns="http://www.w3.org/2000/svg" p-id="2174" xmlns:xlink="http://www.w3.org/1999/xlink" width="64" height="64"><defs><style type="text/css">@font-face { font-family: feedback-iconfont; src: url("//at.alicdn.com/t/font_1031158_u69w8yhxdu.woff2?t=1630033759944") format("woff2"), url("//at.alicdn.com/t/font_1031158_u69w8yhxdu.woff?t=1630033759944") format("woff"), url("//at.alicdn.com/t/font_1031158_u69w8yhxdu.ttf?t=1630033759944") format("truetype"); }
</style></defs><path d="M983.87027 312.735135c-26.291892-62.27027-63.654054-116.237838-109.318919-163.286486s-101.016216-84.410811-163.286486-109.318919C647.610811 13.837838 581.189189 0 512 0s-136.994595 13.837838-199.264865 40.12973-116.237838 63.654054-163.286486 109.318919-84.410811 101.016216-109.318919 163.286486C13.837838 376.389189 0 442.810811 0 512s13.837838 136.994595 40.12973 199.264865 63.654054 116.237838 109.318919 163.286486 101.016216 84.410811 163.286486 109.318919C376.389189 1010.162162 442.810811 1024 512 1024s136.994595-13.837838 199.264865-40.12973 116.237838-63.654054 163.286486-109.318919 84.410811-101.016216 109.318919-163.286486C1010.162162 647.610811 1024 581.189189 1024 512s-13.837838-135.610811-40.12973-199.264865zM961.72973 512c0 247.697297-202.032432 449.72973-449.72973 449.72973S62.27027 759.697297 62.27027 512 264.302703 62.27027 512 62.27027 961.72973 264.302703 961.72973 512z" p-id="2175"></path><path d="M759.697297 631.005405c-5.535135-4.151351-17.989189-12.454054-44.281081-31.827027-20.756757-15.221622-33.210811-24.908108-40.12973-29.059459-5.535135-4.151351-12.454054-6.918919-19.372972-6.918919-6.918919 1.383784-11.07027 2.767568-15.221622 6.918919-2.767568 2.767568-6.918919 8.302703-6.918919 13.837838 1.383784 4.151351 1.383784 8.302703 4.151351 12.454054 2.767568 4.151351 5.535135 6.918919 12.454054 11.07027 2.767568 1.383784 6.918919 4.151351 9.686487 5.535135h1.383784c-44.281081 4.151351-73.340541 6.918919-85.794595 6.918919-11.07027 0-23.524324 0-35.978378-1.383784 11.07027-8.302703 23.524324-16.605405 35.978378-27.675675 16.605405-13.837838 27.675676-23.524324 31.827027-27.675676 4.151351-5.535135 5.535135-11.07027 5.535135-15.221622s-2.767568-11.07027-8.302702-15.221621c-5.535135-5.535135-13.837838-6.918919-20.756757-1.383784-5.535135 4.151351-17.989189 15.221622-38.745946 31.827027-17.989189 2.767568-34.594595 4.151351-51.2 4.151351 2.767568-2.767568 6.918919-5.535135 13.837838-11.07027 11.07027-9.686486 17.989189-15.221622 19.372973-20.756757 2.767568-6.918919 1.383784-13.837838-4.151352-19.372973l-4.151351-4.151351h1.383784c6.918919 0 12.454054-1.383784 15.221621-4.151351 1.383784 1.383784 2.767568 4.151351 4.151352 5.535135 12.454054 12.454054 31.827027 9.686486 56.735135-11.07027 23.524324-17.989189 41.513514-31.827027 53.967567-42.897298l19.372973 15.221622c2.767568 2.767568 15.221622 12.454054 35.978379 26.291892 22.140541 15.221622 37.362162 22.140541 49.816216 23.524324 16.605405 1.383784 20.756757-8.302703 20.756757-15.221622 1.383784-11.07027 0-16.605405-2.767568-20.756756-2.767568-2.767568-4.151351-5.535135-8.302703-8.302703-1.383784-1.383784-1.383784-1.383784-4.151351-2.767568-4.151351-2.767568-12.454054-8.302703-23.524324-13.837837-11.07027-6.918919-22.140541-13.837838-31.827027-20.756757-5.535135-4.151351-13.837838-11.07027-24.908108-20.756757 15.221622-20.756757 26.291892-37.362162 33.21081-52.583784l12.454054-33.210811c1.383784-1.383784 2.767568-4.151351 4.151352-6.918918l2.767567-2.767568h23.524325c5.535135 0 11.07027-1.383784 15.221621-5.535135 4.151351-4.151351 6.918919-8.302703 8.302703-12.454054 0-4.151351-2.767568-9.686486-6.918919-13.837838-4.151351-4.151351-9.686486-6.918919-16.605405-6.918919v-2.767568h-127.308108L636.540541 262.918919c2.767568-5.535135 2.767568-9.686486 1.383783-12.454054-1.383784-2.767568-4.151351-5.535135-8.302702-6.918919l-4.151352-1.383784c-4.151351-1.383784-8.302703-2.767568-11.07027-2.767567-8.302703 0-13.837838 2.767568-15.221622 5.535135-2.767568 4.151351-5.535135 9.686486-8.302702 20.756756-2.767568 8.302703-6.918919 16.605405-13.837838 27.675676-5.535135 8.302703-11.07027 16.605405-20.756757 24.908108l-20.756757 27.675676c-5.535135 6.918919-8.302703 11.07027-8.302702 16.605405-1.383784 6.918919 2.767568 12.454054 9.686486 16.605406 4.151351 4.151351 12.454054 6.918919 23.524324-1.383784 6.918919-4.151351 12.454054-9.686486 17.98919-15.221622 13.837838 23.524324 27.675676 45.664865 42.897297 65.037838l-20.756757 17.989189c-1.383784 1.383784-13.837838 9.686486-19.372973 13.837838-12.454054 8.302703-24.908108 15.221622-37.362162 22.140541-1.383784 2.767568-2.767568 2.767568-4.151351 4.151351-1.383784-2.767568-2.767568-5.535135-5.535135-6.918919-5.535135-4.151351-9.686486-5.535135-13.837838-5.535135h-29.05946l5.535135-31.827027h35.978379c6.918919 0 11.07027-4.151351 15.221621-6.918919 4.151351-5.535135 5.535135-9.686486 5.535136-15.221622-1.383784-5.535135-2.767568-9.686486-6.918919-13.837837-4.151351-4.151351-8.302703-5.535135-13.837838-5.535135h-30.443243l4.151351-31.827028c1.383784-6.918919-1.383784-16.605405-4.151351-26.291891-4.151351-11.07027-16.605405-16.605405-35.978379-16.605406h-152.216216l4.151351-6.918919c0-1.383784 1.383784-1.383784 1.383784-1.383784l4.151351-4.151351h197.881081c6.918919 0 13.837838-2.767568 19.372973-6.918919 5.535135-4.151351 8.302703-9.686486 8.302703-15.221621 0-5.535135-2.767568-9.686486-8.302703-15.221622-5.535135-4.151351-12.454054-6.918919-20.756756-6.918919H344.562162l1.383784-5.535135c2.767568-5.535135 2.767568-12.454054-1.383784-16.605405-4.151351-5.535135-9.686486-8.302703-16.605405-8.302703-6.918919 1.383784-12.454054 1.383784-15.221622 5.535135-2.767568 2.767568-8.302703 11.07027-12.454054 20.756757-5.535135 11.07027-12.454054 22.140541-23.524324 33.210811L258.767568 318.27027c-6.918919 6.918919-9.686486 13.837838-9.686487 19.372973-1.383784 6.918919 1.383784 12.454054 6.918919 20.756757 6.918919 6.918919 15.221622 8.302703 24.908108 1.383784 5.535135-4.151351 11.07027-8.302703 17.989189-11.07027l-15.221621 53.967567h-29.05946c-8.302703 0-13.837838 2.767568-17.989189 6.918919-2.767568 4.151351-5.535135 8.302703-2.767568 12.454054 1.383784 4.151351 4.151351 6.918919 9.686487 9.686487 4.151351 2.767568 9.686486 4.151351 13.837838 4.151351h20.756757l-5.535136 26.291892c-1.383784 8.302703-2.767568 15.221622-1.383783 22.14054 1.383784 5.535135 2.767568 11.07027 5.535135 15.221622 2.767568 4.151351 6.918919 8.302703 12.454054 11.07027 5.535135 2.767568 11.07027 5.535135 15.221621 5.535135h193.72973c-5.535135 2.767568-9.686486 6.918919-16.605405 11.070271-9.686486 6.918919-20.756757 13.837838-33.210811 17.989189-13.837838 5.535135-26.291892 9.686486-37.362162 12.454054-11.07027 2.767568-20.756757 4.151351-30.443243 5.535135l-19.372973 1.383784c-5.535135 1.383784-9.686486 2.767568-13.837838 5.535135-4.151351 4.151351-5.535135 8.302703-5.535135 13.837838s2.767568 9.686486 5.535135 15.221621c4.151351 5.535135 16.605405 8.302703 42.897297 8.302703 17.989189 0 35.978378 0 53.967568 1.383784 13.837838 1.383784 23.524324 1.383784 27.675675 1.383784h5.535135c-9.686486 5.535135-19.372973 8.302703-29.059459 11.07027-13.837838 4.151351-40.12973 6.918919-74.724324 6.918919l-51.2 1.383784c-24.908108 1.383784-41.513514 2.767568-48.432433 2.767567-8.302703 0-13.837838 1.383784-16.605405 4.151352-6.918919 4.151351-11.07027 12.454054-11.07027 23.524324 0 4.151351 1.383784 8.302703 4.151351 11.07027 5.535135 5.535135 15.221622 6.918919 30.443243 6.918919 8.302703 0 19.372973 0 33.210811-1.383784l17.989189-1.383784c12.454054 0 22.140541-1.383784 29.05946-1.383783h11.07027l60.886486-2.767568c15.221622-1.383784 31.827027-1.383784 51.2-1.383784v51.2c0 4.151351-1.383784 6.918919-2.767567 11.070271-1.383784 4.151351-4.151351 5.535135-8.302703 5.535135-4.151351 1.383784-9.686486 0-15.221622-1.383784l-5.535135-1.383784c-4.151351-1.383784-5.535135-1.383784-8.302702-1.383784-6.918919 1.383784-11.07027 2.767568-15.221622 6.918919-4.151351 4.151351-5.535135 9.686486-5.535135 17.98919 1.383784 6.918919 6.918919 13.837838 15.221621 17.989189s20.756757 8.302703 31.827027 8.302702c9.686486 0 22.140541-2.767568 34.594595-6.918919 13.837838-5.535135 20.756757-12.454054 23.524324-23.524324 2.767568-11.07027 2.767568-19.372973 2.767568-27.675676v-60.886486c83.027027-2.767568 141.145946-5.535135 182.659459-9.686486l29.05946 24.908108c5.535135 5.535135 11.07027 8.302703 16.605405 8.302702s11.07027-2.767568 15.221622-6.918919c4.151351-4.151351 6.918919-9.686486 6.918919-15.221621 0-6.918919-2.767568-12.454054-5.535135-16.605406-1.383784-8.302703-9.686486-13.837838-16.605406-19.372973zM614.4 336.259459l2.767568-4.151351h66.421621l-2.767567 9.686487c-2.767568 12.454054-12.454054 30.443243-29.05946 53.967567L622.702703 352.864865c-1.383784-1.383784-2.767568-4.151351-2.767568-6.918919-1.383784-2.767568-2.767568-5.535135-5.535135-9.686487z m-196.497297 41.513514l-1.383784-2.767568c-1.383784-2.767568-2.767568-6.918919-4.151351-9.686486 0-1.383784-1.383784-1.383784-1.383784-1.383784h33.210811c4.151351 0 8.302703 1.383784 11.07027 4.151351 1.383784 2.767568 2.767568 5.535135 1.383784 8.302703l-5.535135 23.524325h-37.362163l2.767568-13.837838c4.151351-1.383784 2.767568-4.151351 1.383784-8.302703zM401.297297 445.578378l-5.535135-11.07027h52.583784l-5.535135 40.12973h-38.745946l1.383784-12.454054c1.383784-5.535135 0-9.686486-4.151352-16.605406z m-87.178378 16.605406l5.535135-27.675676h33.210811l1.383784 6.918919c0 2.767568 2.767568 9.686486 4.151351 12.454054 2.767568 5.535135 4.151351 12.454054 5.535135 20.756757h-42.897297c-4.151351 0-6.918919-1.383784-8.302703-1.383784 0-1.383784-1.383784-2.767568 1.383784-11.07027z m12.454054-63.654054l4.151351-22.140541c1.383784-6.918919 2.767568-9.686486 4.151352-9.686486 1.383784-1.383784 4.151351-2.767568 9.686486-2.767568l23.524324 1.383784 2.767568 6.918919 4.151351 12.454054 4.151352 6.918919c0 1.383784 1.383784 4.151351 0 6.918919h-52.583784z" p-id="2176"></path><path d="M441.427027 712.648649c1.383784-2.767568 1.383784-8.302703 1.383784-17.98919-1.383784-6.918919-5.535135-15.221622-24.908108-13.837837-2.767568 0-11.07027 2.767568-20.756757 8.302702l-55.351351 19.372973c-13.837838 4.151351-27.675676 8.302703-42.897298 11.070271-17.989189 2.767568-27.675676 8.302703-31.827027 9.686486-5.535135 4.151351-9.686486 8.302703-11.07027 13.837838-2.767568 6.918919-1.383784 13.837838 4.151351 17.989189 4.151351 5.535135 11.07027 8.302703 20.756757 8.302703h1.383784c9.686486 0 33.210811-5.535135 70.572973-17.989189 40.12973-12.454054 63.654054-20.756757 71.956757-24.908109 8.302703-4.151351 13.837838-8.302703 16.605405-13.837837zM768 750.010811c-1.383784-5.535135-2.767568-9.686486-5.535135-15.221622L761.081081 733.405405c-4.151351-5.535135-11.07027-9.686486-22.14054-13.837837l-11.070271-4.151352c-11.07027-5.535135-29.059459-11.07027-52.583784-20.756757-34.594595-13.837838-55.351351-20.756757-67.805405-22.14054-9.686486-1.383784-16.605405 1.383784-20.756757 5.535135-2.767568 2.767568-4.151351 5.535135-4.151351 9.686487 0 8.302703 1.383784 15.221622 5.535135 20.756756 2.767568 5.535135 9.686486 8.302703 20.756757 12.454054 8.302703 2.767568 20.756757 6.918919 33.210811 12.454054 6.918919 2.767568 15.221622 6.918919 23.524324 9.686487 5.535135 2.767568 11.07027 4.151351 16.605405 6.918919 15.221622 6.918919 27.675676 11.07027 35.978379 15.221621 9.686486 4.151351 16.605405 6.918919 22.14054 6.918919h2.767568c8.302703-1.383784 13.837838-4.151351 17.989189-8.302702 5.535135-2.767568 6.918919-8.302703 6.918919-13.837838z" p-id="2177"></path></svg>