<?xml version="1.0" standalone="no"?><!DOCTYPE svg PUBLIC "-//W3C//DTD SVG 1.1//EN" "http://www.w3.org/Graphics/SVG/1.1/DTD/svg11.dtd"><svg t="1649335361025" class="icon" viewBox="0 0 1024 1024" version="1.1" xmlns="http://www.w3.org/2000/svg" p-id="5889" xmlns:xlink="http://www.w3.org/1999/xlink" width="64" height="64"><defs><style type="text/css">@font-face { font-family: feedback-iconfont; src: url("//at.alicdn.com/t/font_1031158_u69w8yhxdu.woff2?t=1630033759944") format("woff2"), url("//at.alicdn.com/t/font_1031158_u69w8yhxdu.woff?t=1630033759944") format("woff"), url("//at.alicdn.com/t/font_1031158_u69w8yhxdu.ttf?t=1630033759944") format("truetype"); }
</style></defs><path d="M896 288H640V32H128v448h768z" fill="" p-id="5890"></path><path d="M668.8 32v227.2H896zM752 675.2c-6.4-3.2-12.8-6.4-19.2-6.4-6.4 0-16-3.2-22.4-3.2h-51.2v92.8h51.2c6.4 0 16 0 22.4-3.2 6.4 0 12.8-3.2 19.2-6.4 6.4-3.2 9.6-6.4 12.8-12.8 3.2-6.4 6.4-12.8 6.4-22.4 0-9.6-3.2-19.2-6.4-22.4-3.2-6.4-6.4-12.8-12.8-16z" fill="" p-id="5891"></path><path d="M0 544v448h1024V544H0z m435.2 377.6H176v-54.4l166.4-198.4H188.8v-57.6H432v54.4L265.6 864h169.6v57.6z m102.4 0h-67.2V614.4h67.2v307.2zM832 748.8c-3.2 12.8-9.6 22.4-19.2 32-9.6 9.6-19.2 16-32 22.4-12.8 6.4-28.8 9.6-48 9.6h-70.4v108.8h-67.2V614.4h137.6c19.2 0 35.2 3.2 48 9.6 12.8 6.4 25.6 12.8 32 22.4 9.6 9.6 16 19.2 19.2 32 3.2 12.8 6.4 22.4 6.4 35.2-3.2 12.8-3.2 22.4-6.4 35.2z" fill="" p-id="5892"></path></svg>